<?xml version="1.0" encoding="iso-8859-1"?>
<!-- Uploaded to: SVG Repo, www.svgrepo.com, Generator: SVG Repo Mixer Tools -->
<svg fill="#000000" height="800px" width="800px" version="1.1" id="Layer_1" xmlns="http://www.w3.org/2000/svg" xmlns:xlink="http://www.w3.org/1999/xlink" 
	 viewBox="0 0 512 512" xml:space="preserve">
<g>
	<g>
		<path d="M263.444,197.879c-3.611-4.556-11.278-4.556-14.889,0c-4.333,5.495-106.333,135.305-106.333,195.505
			c0,62.736,51.037,113.778,113.778,113.778c62.741,0,113.778-51.042,113.778-113.778
			C369.778,333.184,267.778,203.374,263.444,197.879z M256,488.198c-52.278,0-94.815-42.533-94.815-94.815
			c0-41.046,62.731-131.972,94.815-174.143c32.083,42.167,94.815,133.074,94.815,174.143
			C350.815,445.665,308.278,488.198,256,488.198z"/>
	</g>
</g>
<g>
	<g>
		<path d="M434.167,8.318c-3.593-4.639-11.407-4.639-15,0c-7.963,10.292-77.833,101.81-77.833,146.5
			c0,47.893,38.278,86.861,85.333,86.861c47.056,0,85.333-38.968,85.333-86.861C512,110.128,442.13,18.61,434.167,8.318z
			 M426.667,222.716c-36.593,0-66.37-30.458-66.37-67.898c0-28.958,42.667-92.801,66.37-124.949
			c23.704,32.148,66.37,95.991,66.37,124.949C493.037,192.258,463.259,222.716,426.667,222.716z"/>
	</g>
</g>
<g>
	<g>
		<path d="M92.833,8.318c-3.593-4.639-11.407-4.639-15,0C69.87,18.61,0,110.128,0,154.818c0,47.893,38.278,86.861,85.333,86.861
			c47.056,0,85.333-38.968,85.333-86.861C170.667,110.128,100.796,18.61,92.833,8.318z M85.333,222.716
			c-36.593,0-66.37-30.458-66.37-67.898c0-28.958,42.667-92.801,66.37-124.949c23.704,32.148,66.37,95.991,66.37,124.949
			C151.704,192.258,121.926,222.716,85.333,222.716z"/>
	</g>
</g>
</svg>