<svg width="38" height="71" viewBox="0 0 38 71" fill="none" xmlns="http://www.w3.org/2000/svg">
<path d="M15.4261 67.105C15.0661 67.105 14.8311 66.935 14.7211 66.595L13.6411 63.475L10.5811 64.15L9.60611 66.61C9.54611 66.75 9.45611 66.865 9.33611 66.955C9.22611 67.045 9.08611 67.09 8.91611 67.09C8.71611 67.09 8.54111 67.02 8.39111 66.88C8.24111 66.74 8.16611 66.575 8.16611 66.385C8.16611 66.255 8.20111 66.105 8.27111 65.935L8.87111 64.435C8.81111 64.415 8.76611 64.395 8.73611 64.375C8.47611 64.245 8.34611 64.025 8.34611 63.715C8.34611 63.535 8.39611 63.38 8.49611 63.25C8.60611 63.12 8.74611 63.035 8.91611 62.995L9.47111 62.875L11.6911 57.235C11.7511 57.085 11.8461 56.97 11.9761 56.89C12.1061 56.81 12.2461 56.77 12.3961 56.77C12.5561 56.77 12.6961 56.81 12.8161 56.89C12.9361 56.97 13.0261 57.095 13.0861 57.265L16.0711 65.92C16.0811 65.94 16.1011 66 16.1311 66.1C16.1611 66.19 16.1761 66.285 16.1761 66.385C16.1761 66.575 16.1061 66.745 15.9661 66.895C15.8261 67.035 15.6461 67.105 15.4261 67.105ZM13.1461 62.08L12.3361 59.665L11.2111 62.5L13.1461 62.08ZM19.7875 67.18C19.4375 67.18 19.0825 67.145 18.7225 67.075C18.3625 67.015 18.1175 66.965 17.9875 66.925C17.8275 66.875 17.6925 66.78 17.5825 66.64C17.4725 66.5 17.4175 66.35 17.4175 66.19V57.685C17.4175 57.475 17.4875 57.3 17.6275 57.16C17.7775 57.02 17.9575 56.95 18.1675 56.95C19.1775 56.95 20.1975 57.1 21.2275 57.4C22.2575 57.7 23.1475 58.26 23.8975 59.08C24.6575 59.9 25.0375 61.035 25.0375 62.485C25.0375 63.535 24.8075 64.415 24.3475 65.125C23.8875 65.825 23.2625 66.345 22.4725 66.685C21.6825 67.015 20.7875 67.18 19.7875 67.18ZM19.7875 65.68C20.9575 65.68 21.8725 65.41 22.5325 64.87C23.2025 64.33 23.5375 63.535 23.5375 62.485C23.5375 61.185 23.1125 60.22 22.2625 59.59C21.4225 58.96 20.3075 58.59 18.9175 58.48V65.59C19.2575 65.65 19.5475 65.68 19.7875 65.68ZM29.1332 67.18C28.7832 67.18 28.4282 67.145 28.0682 67.075C27.7082 67.015 27.4632 66.965 27.3332 66.925C27.1732 66.875 27.0382 66.78 26.9282 66.64C26.8182 66.5 26.7632 66.35 26.7632 66.19V57.685C26.7632 57.475 26.8332 57.3 26.9732 57.16C27.1232 57.02 27.3032 56.95 27.5132 56.95C28.5232 56.95 29.5432 57.1 30.5732 57.4C31.6032 57.7 32.4932 58.26 33.2432 59.08C34.0032 59.9 34.3832 61.035 34.3832 62.485C34.3832 63.535 34.1532 64.415 33.6932 65.125C33.2332 65.825 32.6082 66.345 31.8182 66.685C31.0282 67.015 30.1332 67.18 29.1332 67.18ZM29.1332 65.68C30.3032 65.68 31.2182 65.41 31.8782 64.87C32.5482 64.33 32.8832 63.535 32.8832 62.485C32.8832 61.185 32.4582 60.22 31.6082 59.59C30.7682 58.96 29.6532 58.59 28.2632 58.48V65.59C28.6032 65.65 28.8932 65.68 29.1332 65.68Z" fill="#9E9E9E"/>
<path d="M37.5621 3.15975C37.2749 2.89575 36.8842 2.75 36.4799 2.75C36.3963 2.75 36.3127 2.7555 36.2306 2.76925L28.6442 3.91325C27.2762 4.1195 25.9614 4.50312 24.718 5.05862C24.2665 4.36287 23.768 3.70563 23.2314 3.09788L20.9483 0.517C20.658 0.18975 20.2218 0 19.7597 0C19.2976 0 18.8614 0.18975 18.5726 0.515625L16.2895 3.0965C15.1069 4.433 14.1645 5.91525 13.4744 7.51713C12.1414 7.02075 10.7521 6.67838 9.32477 6.49275L1.7338 5.51375C1.66235 5.50413 1.59091 5.5 1.51947 5.5C1.11667 5.5 0.726024 5.64437 0.43874 5.90837C0.0997764 6.21775 -0.0552654 6.65362 0.0176955 7.084L0.978347 12.7284C1.9086 18.2064 5.79832 22.6242 11.0576 24.75H9.11956C8.28051 24.75 7.59955 25.366 7.59955 26.125V30.25C7.59955 31.009 8.28051 31.625 9.11956 31.625H11.0074L11.7674 37.125H10.6396C9.80053 37.125 9.11956 37.741 9.11956 38.5V42.625C9.11956 43.384 9.80053 44 10.6396 44H31.9198C32.7589 44 33.4399 43.384 33.4399 42.625V38.5C33.4399 37.741 32.7589 37.125 31.9198 37.125H30.792L31.552 31.625H33.4399C34.2789 31.625 34.9599 31.009 34.9599 30.25V26.125C34.9599 25.366 34.2789 24.75 33.4399 24.75H24.3197V23.375V22.1347V20.5521C30.5518 19.9526 35.6956 15.7107 36.8386 10.0265L37.9756 4.37112C38.0637 3.93112 37.9102 3.47875 37.5621 3.15975ZM33.8472 9.53425C32.8759 14.3674 28.2308 17.875 22.7997 17.875H22.0777C21.6248 16.5522 20.9666 15.3093 20.1351 14.1749C21.1946 10.3262 24.6389 7.304 29.1443 6.62475L34.5996 5.8025L33.8472 9.53425ZM30.3998 41.25H12.1596V39.875H13.6796H28.8798H30.3998V41.25ZM27.5376 38.5H15.0218L13.8818 30.25H28.6776L27.5376 38.5ZM31.9198 28.875H30.3998H12.1596H10.6396V27.5H18.2397H22.7997H31.9198V28.875ZM3.33285 8.49888L8.8946 9.218C15.9551 10.1296 21.2797 15.6832 21.2797 22.1347V26.125H19.7597V24.75V23.375H18.2397C11.0682 23.375 5.07328 18.722 3.9819 12.3104L3.33285 8.49888ZM19.7597 3.57638L20.8556 4.81525C21.6658 5.731 22.2951 6.75263 22.8256 7.81275C21.0912 9.13 19.7703 10.8501 19.0042 12.8026C18.0649 11.8016 16.9781 10.912 15.7666 10.1722C16.3184 8.23212 17.2699 6.39238 18.6638 4.81525L19.7597 3.57638Z" fill="#808080"/>
</svg>
