<svg width="38" height="71" viewBox="0 0 38 71" fill="none" xmlns="http://www.w3.org/2000/svg">
<path d="M4.93891 67.09C4.77891 67.09 4.63391 67.05 4.50391 66.97C4.37391 66.88 4.28391 66.755 4.23391 66.595L1.30891 57.94C1.26891 57.82 1.24891 57.705 1.24891 57.595C1.24891 57.385 1.31891 57.215 1.45891 57.085C1.59891 56.955 1.78391 56.89 2.01391 56.89C2.17391 56.89 2.31391 56.935 2.43391 57.025C2.55391 57.105 2.64391 57.23 2.70391 57.4L4.99891 64.195L7.69891 57.355C7.76891 57.205 7.86391 57.09 7.98391 57.01C8.10391 56.93 8.23891 56.89 8.38891 56.89C8.59891 56.89 8.77391 56.965 8.91391 57.115C9.05391 57.255 9.12391 57.42 9.12391 57.61C9.12391 57.71 9.10391 57.805 9.06391 57.895L5.62891 66.625C5.50891 66.935 5.27891 67.09 4.93891 67.09ZM10.4302 67C10.2202 67 10.0402 66.93 9.8902 66.79C9.7502 66.64 9.6802 66.46 9.6802 66.25C9.6802 66.04 9.7502 65.865 9.8902 65.725C10.0402 65.575 10.2202 65.5 10.4302 65.5H11.4802V58.45H10.4302C10.2202 58.45 10.0402 58.375 9.8902 58.225C9.7502 58.075 9.6802 57.895 9.6802 57.685C9.6802 57.475 9.7502 57.3 9.8902 57.16C10.0402 57.02 10.2202 56.95 10.4302 56.95H14.0152C14.2252 56.95 14.4002 57.02 14.5402 57.16C14.6802 57.3 14.7502 57.475 14.7502 57.685C14.7502 57.895 14.6802 58.075 14.5402 58.225C14.4002 58.375 14.2252 58.45 14.0152 58.45H12.9802V65.5H14.0152C14.2352 65.5 14.4102 65.575 14.5402 65.725C14.6802 65.865 14.7502 66.04 14.7502 66.25C14.7502 66.46 14.6802 66.64 14.5402 66.79C14.4002 66.93 14.2252 67 14.0152 67H10.4302ZM17.1543 67C16.9443 67 16.7643 66.93 16.6143 66.79C16.4743 66.64 16.4043 66.46 16.4043 66.25V57.7C16.4043 57.49 16.4743 57.315 16.6143 57.175C16.7643 57.025 16.9443 56.95 17.1543 56.95H23.1393C23.3493 56.95 23.5243 57.025 23.6643 57.175C23.8043 57.315 23.8743 57.49 23.8743 57.7C23.8743 57.91 23.8043 58.09 23.6643 58.24C23.5243 58.38 23.3493 58.45 23.1393 58.45H17.8893V61.03H22.4493C22.6593 61.03 22.8343 61.1 22.9743 61.24C23.1143 61.38 23.1843 61.555 23.1843 61.765C23.1843 61.975 23.1143 62.155 22.9743 62.305C22.8343 62.445 22.6593 62.515 22.4493 62.515H17.8893V65.5H23.1093C23.3193 65.5 23.4943 65.575 23.6343 65.725C23.7743 65.865 23.8443 66.04 23.8443 66.25C23.8443 66.46 23.7743 66.64 23.6343 66.79C23.4943 66.93 23.3193 67 23.1093 67H17.1543ZM27.6659 67.09C27.3159 67.09 27.0859 66.92 26.9759 66.58L24.3659 58.015C24.3159 57.835 24.2909 57.675 24.2909 57.535C24.2909 57.345 24.3609 57.19 24.5009 57.07C24.6409 56.94 24.8109 56.875 25.0109 56.875C25.3809 56.875 25.6209 57.05 25.7309 57.4L27.6959 63.865L29.7959 57.385C29.9059 57.045 30.1459 56.875 30.5159 56.875C30.8759 56.875 31.1059 57.05 31.2059 57.4L32.9909 63.88L35.3909 57.235C35.5209 56.885 35.7609 56.71 36.1109 56.71C36.3109 56.71 36.4809 56.775 36.6209 56.905C36.7609 57.025 36.8309 57.18 36.8309 57.37C36.8309 57.54 36.8059 57.7 36.7559 57.85L33.5909 66.61C33.5409 66.76 33.4559 66.88 33.3359 66.97C33.2159 67.05 33.0759 67.09 32.9159 67.09C32.5259 67.09 32.2859 66.91 32.1959 66.55L30.4409 60.22L28.3859 66.58C28.3259 66.77 28.2359 66.905 28.1159 66.985C28.0059 67.055 27.8559 67.09 27.6659 67.09Z" fill="#9E9E9E"/>
<path d="M0.0542082 0.0585885L0 38.1411H2.76462V2.98802H32.5792L32.6117 0L0.0542082 0.0585885ZM5.48588 5.91744V44H38V5.91744H6.84108H5.48588ZM8.20171 8.84687H35.2896V41.0706H8.20171V8.84687ZM13.6063 14.7057V17.6352H29.923V14.7057H13.6063ZM13.6063 20.5646V23.494H29.923V20.5646H13.6063ZM13.5846 26.4234V29.3529H21.7375V26.4234H13.5846Z" fill="#808080"/>
</svg>
