<!DOCTYPE svg PUBLIC "-//W3C//DTD SVG 1.1//EN" "http://www.w3.org/Graphics/SVG/1.1/DTD/svg11.dtd">
<!-- Uploaded to: SVG Repo, www.svgrepo.com, Transformed by: SVG Repo Mixer Tools -->
<svg width="800px" height="800px" viewBox="-2.4 -2.4 28.80 28.80" fill="none" xmlns="http://www.w3.org/2000/svg" transform="rotate(0)matrix(1, 0, 0, 1, 0, 0)">
<g id="SVGRepo_bgCarrier" stroke-width="0"/>
<g id="SVGRepo_tracerCarrier" stroke-linecap="round" stroke-linejoin="round"/>
<g id="SVGRepo_iconCarrier"> <path d="M21 14.7C21 18.1794 19.0438 21 15.5 21C11.9562 21 10 18.1794 10 14.7C10 11.2206 15.5 3 15.5 3C15.5 3 21 11.2206 21 14.7Z" stroke="#ff0000" stroke-width="2" stroke-linecap="round" stroke-linejoin="round"/> <path d="M8 8.2C8 9.7464 7.11083 11 5.5 11C3.88917 11 3 9.7464 3 8.2C3 6.6536 5.5 3 5.5 3C5.5 3 8 6.6536 8 8.2Z" stroke="#ff0000" stroke-width="2" stroke-linecap="round" stroke-linejoin="round"/> </g>
</svg>