<?xml version="1.0" encoding="UTF-8"?>
<svg xmlns="http://www.w3.org/2000/svg" xmlns:xlink="http://www.w3.org/1999/xlink" width="20px" height="20px" viewBox="0 0 20 20" version="1.1">
<g id="surface1">
<path style=" stroke:none;fill-rule:nonzero;fill:rgb(0%,0%,0%);fill-opacity:1;" d="M 4.078125 5.671875 C 4.246094 5.785156 4.425781 5.855469 4.617188 5.894531 C 4.390625 10.101562 3.945312 14.496094 5.484375 18.511719 C 5.558594 18.707031 5.691406 18.828125 5.847656 18.890625 C 5.902344 18.964844 5.976562 19.03125 6.089844 19.078125 C 8.839844 20.300781 11.761719 20.246094 14.582031 19.269531 C 14.949219 19.140625 15.0625 18.792969 14.996094 18.492188 C 15.53125 14.417969 16.039062 10.222656 15.617188 6.109375 C 15.949219 6.039062 16.261719 5.898438 16.492188 5.640625 C 16.949219 5.132812 16.863281 4.476562 16.636719 3.894531 C 16.636719 3.734375 16.5625 3.578125 16.386719 3.472656 C 16.320312 3.417969 16.238281 3.382812 16.148438 3.363281 C 14.886719 2.820312 13.542969 2.539062 12.167969 2.410156 C 12.191406 2.285156 12.179688 2.152344 12.121094 2.011719 C 11.691406 1.023438 10.835938 -0.144531 9.605469 0.015625 C 8.421875 0.167969 7.847656 1.324219 7.609375 2.382812 C 6.820312 2.425781 6.035156 2.476562 5.269531 2.519531 C 5.265625 2.519531 5.261719 2.523438 5.257812 2.523438 C 5.21875 2.519531 5.183594 2.515625 5.144531 2.519531 C 4.324219 2.617188 3.636719 3.007812 3.277344 3.777344 C 3.230469 3.878906 3.207031 3.988281 3.203125 4.09375 C 3.171875 4.199219 3.167969 4.320312 3.214844 4.453125 C 3.378906 4.957031 3.640625 5.367188 4.078125 5.671875 Z M 13.769531 18.207031 C 11.4375 18.925781 9.003906 19.003906 6.722656 17.992188 C 6.691406 17.976562 6.65625 17.964844 6.621094 17.957031 C 5.222656 14.101562 5.660156 9.90625 5.878906 5.882812 C 8.660156 5.683594 11.464844 5.640625 14.238281 5.992188 C 14.273438 6.027344 14.308594 6.054688 14.351562 6.082031 C 14.769531 10.105469 14.292969 14.214844 13.769531 18.207031 Z M 9.714844 1.261719 C 10.265625 1.191406 10.652344 1.828125 10.886719 2.328125 C 10.230469 2.304688 9.570312 2.308594 8.914062 2.328125 C 9.046875 1.84375 9.28125 1.316406 9.714844 1.261719 Z M 4.710938 3.941406 C 4.632812 4.007812 4.917969 3.832031 4.828125 3.871094 C 4.890625 3.84375 4.957031 3.828125 5.023438 3.808594 C 5.007812 3.8125 5.234375 3.769531 5.144531 3.78125 C 5.152344 3.78125 5.160156 3.777344 5.167969 3.777344 C 5.203125 3.78125 5.234375 3.785156 5.269531 3.78125 C 8.558594 3.589844 12.382812 3.128906 15.503906 4.445312 C 15.511719 4.476562 15.523438 4.503906 15.535156 4.535156 C 15.546875 4.578125 15.558594 4.621094 15.566406 4.664062 C 15.566406 4.675781 15.566406 4.683594 15.566406 4.699219 C 15.570312 4.722656 15.566406 4.746094 15.566406 4.769531 C 15.566406 4.769531 15.566406 4.777344 15.5625 4.777344 C 15.550781 4.777344 15.460938 4.839844 15.496094 4.835938 C 15.425781 4.859375 15.355469 4.878906 15.285156 4.894531 C 15.25 4.902344 15.203125 4.90625 15.152344 4.910156 C 15.085938 4.863281 15.003906 4.828125 14.894531 4.8125 C 11.695312 4.375 8.484375 4.410156 5.269531 4.664062 C 5.214844 4.667969 5.160156 4.679688 5.109375 4.695312 C 4.796875 4.691406 4.597656 4.539062 4.46875 4.21875 C 4.527344 4.117188 4.589844 4.042969 4.710938 3.941406 Z M 4.710938 3.941406 "/>
<path style=" stroke:none;fill-rule:nonzero;fill:rgb(0%,0%,0%);fill-opacity:1;" d="M 7.917969 7.941406 C 7.910156 7.128906 6.652344 7.128906 6.660156 7.941406 C 6.675781 9.972656 6.910156 11.980469 7.164062 13.996094 C 7.261719 14.792969 8.523438 14.800781 8.421875 13.996094 C 8.171875 11.980469 7.9375 9.972656 7.917969 7.941406 Z M 7.917969 7.941406 "/>
<path style=" stroke:none;fill-rule:nonzero;fill:rgb(0%,0%,0%);fill-opacity:1;" d="M 10.566406 7.816406 C 10.523438 7.007812 9.261719 7.003906 9.304688 7.816406 C 9.425781 10.046875 9.507812 12.277344 9.746094 14.5 C 9.835938 15.300781 11.097656 15.308594 11.007812 14.5 C 10.769531 12.277344 10.6875 10.046875 10.566406 7.816406 Z M 10.566406 7.816406 "/>
<path style=" stroke:none;fill-rule:nonzero;fill:rgb(0%,0%,0%);fill-opacity:1;" d="M 12.101562 7.921875 C 12.441406 10.414062 12.28125 12.9375 12.269531 15.445312 C 12.265625 16.257812 13.527344 16.257812 13.53125 15.445312 C 13.542969 12.816406 13.675781 10.199219 13.320312 7.585938 C 13.210938 6.785156 11.996094 7.125 12.101562 7.921875 Z M 12.101562 7.921875 "/>
</g>
</svg>
