<svg width="55" height="91" viewBox="0 0 55 91" fill="none" xmlns="http://www.w3.org/2000/svg">
<path d="M26.0342 56.5909C30.6445 56.0201 33.0813 50.8513 36.6643 47.8944C39.5429 45.5189 42.6782 43.6339 45.1371 40.8263C47.8133 37.7706 50.3253 34.5847 51.6759 30.7539C53.2088 26.4065 55.8299 21.1914 53.4526 17.2421C50.9422 13.0717 44.2894 14.2848 40.1861 11.6663C36.8914 9.56391 35.4101 5.40129 31.9753 3.53668C28.0893 1.42719 23.5589 -0.86824 19.3027 0.329762C15.0361 1.5307 12.9695 6.28431 10.128 9.68609C7.638 12.667 5.2378 15.6106 3.59766 19.1314C1.87101 22.8379 0.579616 26.6841 0.308993 30.7641C0.00428027 35.358 -0.666351 40.4763 1.92966 44.2786C4.52576 48.0811 9.82632 48.6152 13.9266 50.7096C17.9812 52.7806 21.5157 57.1503 26.0342 56.5909Z" fill="#EFF2EA"/>
<path d="M14.6564 29.8627C13.7803 29.0119 13.0318 28.0389 12.4342 26.9739C8.70086 20.5961 11.5009 12.085 11.5009 12.085C14.6686 12.8457 17.6478 14.2446 20.2564 16.1961" stroke="black" stroke-width="4.44444" stroke-linecap="round" stroke-linejoin="round"/>
<path d="M37.412 29.8627C38.2881 29.0119 39.0366 28.0389 39.6342 26.9739C43.3231 20.5961 40.5231 12.085 40.5231 12.085C37.371 12.8514 34.4074 14.25 31.812 16.1961" stroke="black" stroke-width="4.44444" stroke-linecap="round" stroke-linejoin="round"/>
<path d="M29.7231 29.8628C31.5468 27.2464 32.5804 24.161 32.7009 20.974C32.7009 13.6184 26.0342 7.64062 26.0342 7.64062C26.0342 7.64062 19.3675 13.6184 19.3675 20.974C19.488 24.161 20.5216 27.2464 22.3453 29.8628" stroke="black" stroke-width="4.44444" stroke-linecap="round" stroke-linejoin="round"/>
<path d="M35.1898 47.6411H16.8786C16.3327 47.645 15.8044 47.4478 15.3945 47.0871C14.9847 46.7265 14.7219 46.2275 14.6564 45.6855L12.7009 29.8633H39.3675L37.3898 45.6855C37.3247 46.2237 37.0651 46.7196 36.66 47.0798C36.2548 47.4399 35.7319 47.6396 35.1898 47.6411Z" stroke="black" stroke-width="4.44444" stroke-linecap="round" stroke-linejoin="round"/>
<path d="M10.4786 29.8633H41.5898" stroke="black" stroke-width="4.44444" stroke-linecap="round" stroke-linejoin="round"/>
<path d="M15.048 87.7116C14.92 87.7116 14.804 87.6796 14.7 87.6156C14.596 87.5436 14.524 87.4436 14.484 87.3156L12.144 80.3916C12.112 80.2956 12.096 80.2036 12.096 80.1156C12.096 79.9476 12.152 79.8116 12.264 79.7076C12.376 79.6036 12.524 79.5516 12.708 79.5516C12.836 79.5516 12.948 79.5876 13.044 79.6596C13.14 79.7236 13.212 79.8236 13.26 79.9596L15.096 85.3956L17.256 79.9236C17.312 79.8036 17.388 79.7116 17.484 79.6476C17.58 79.5836 17.688 79.5516 17.808 79.5516C17.976 79.5516 18.116 79.6116 18.228 79.7316C18.34 79.8436 18.396 79.9756 18.396 80.1276C18.396 80.2076 18.38 80.2836 18.348 80.3556L15.6 87.3396C15.504 87.5876 15.32 87.7116 15.048 87.7116ZM19.441 87.6396C19.273 87.6396 19.129 87.5836 19.009 87.4716C18.897 87.3516 18.841 87.2076 18.841 87.0396C18.841 86.8716 18.897 86.7316 19.009 86.6196C19.129 86.4996 19.273 86.4396 19.441 86.4396H20.281V80.7996H19.441C19.273 80.7996 19.129 80.7396 19.009 80.6196C18.897 80.4996 18.841 80.3556 18.841 80.1876C18.841 80.0196 18.897 79.8796 19.009 79.7676C19.129 79.6556 19.273 79.5996 19.441 79.5996H22.309C22.477 79.5996 22.617 79.6556 22.729 79.7676C22.841 79.8796 22.897 80.0196 22.897 80.1876C22.897 80.3556 22.841 80.4996 22.729 80.6196C22.617 80.7396 22.477 80.7996 22.309 80.7996H21.481V86.4396H22.309C22.485 86.4396 22.625 86.4996 22.729 86.6196C22.841 86.7316 22.897 86.8716 22.897 87.0396C22.897 87.2076 22.841 87.3516 22.729 87.4716C22.617 87.5836 22.477 87.6396 22.309 87.6396H19.441ZM24.8203 87.6396C24.6523 87.6396 24.5083 87.5836 24.3883 87.4716C24.2763 87.3516 24.2203 87.2076 24.2203 87.0396V80.1996C24.2203 80.0316 24.2763 79.8916 24.3883 79.7796C24.5083 79.6596 24.6523 79.5996 24.8203 79.5996H29.6083C29.7763 79.5996 29.9163 79.6596 30.0283 79.7796C30.1403 79.8916 30.1963 80.0316 30.1963 80.1996C30.1963 80.3676 30.1403 80.5116 30.0283 80.6316C29.9163 80.7436 29.7763 80.7996 29.6083 80.7996H25.4083V82.8636H29.0563C29.2243 82.8636 29.3643 82.9196 29.4763 83.0316C29.5883 83.1436 29.6443 83.2836 29.6443 83.4516C29.6443 83.6196 29.5883 83.7636 29.4763 83.8836C29.3643 83.9956 29.2243 84.0516 29.0563 84.0516H25.4083V86.4396H29.5843C29.7523 86.4396 29.8923 86.4996 30.0043 86.6196C30.1163 86.7316 30.1723 86.8716 30.1723 87.0396C30.1723 87.2076 30.1163 87.3516 30.0043 87.4716C29.8923 87.5836 29.7523 87.6396 29.5843 87.6396H24.8203ZM33.2296 87.7116C32.9496 87.7116 32.7656 87.5756 32.6776 87.3036L30.5896 80.4516C30.5496 80.3076 30.5296 80.1796 30.5296 80.0676C30.5296 79.9156 30.5856 79.7916 30.6976 79.6956C30.8096 79.5916 30.9456 79.5396 31.1056 79.5396C31.4016 79.5396 31.5936 79.6796 31.6816 79.9596L33.2536 85.1316L34.9336 79.9476C35.0216 79.6756 35.2136 79.5396 35.5096 79.5396C35.7976 79.5396 35.9816 79.6796 36.0616 79.9596L37.4896 85.1436L39.4096 79.8276C39.5136 79.5476 39.7056 79.4076 39.9856 79.4076C40.1456 79.4076 40.2816 79.4596 40.3936 79.5636C40.5056 79.6596 40.5616 79.7836 40.5616 79.9356C40.5616 80.0716 40.5416 80.1996 40.5016 80.3196L37.9696 87.3276C37.9296 87.4476 37.8616 87.5436 37.7656 87.6156C37.6696 87.6796 37.5576 87.7116 37.4296 87.7116C37.1176 87.7116 36.9256 87.5676 36.8536 87.2796L35.4496 82.2156L33.8056 87.3036C33.7576 87.4556 33.6856 87.5636 33.5896 87.6276C33.5016 87.6836 33.3816 87.7116 33.2296 87.7116Z" fill="black"/>
</svg>
