<?xml version="1.0" encoding="iso-8859-1"?>
<!-- Uploaded to: SVG Repo, www.svgrepo.com, Generator: SVG Repo Mixer Tools -->
<!DOCTYPE svg PUBLIC "-//W3C//DTD SVG 1.1//EN" "http://www.w3.org/Graphics/SVG/1.1/DTD/svg11.dtd">
<svg fill="#000000" height="800px" width="800px" version="1.1" id="Capa_1" xmlns="http://www.w3.org/2000/svg" xmlns:xlink="http://www.w3.org/1999/xlink" 
	 viewBox="0 0 423.833 423.833" xml:space="preserve">
<path d="M293.25,407.833h-1.85L277.163,248.5h14.421c4.418,0,8-3.582,8-8c0-4.25-3.316-7.715-7.5-7.975V64.308
	c4.184-0.259,7.5-3.725,7.5-7.975c0-4.418-3.582-8-8-8h-5.068l-70.147-46.98c-0.004-0.003-0.008-0.005-0.012-0.007
	c-0.214-0.143-0.434-0.274-0.659-0.395c-0.012-0.006-0.023-0.014-0.035-0.02c-0.213-0.113-0.432-0.214-0.654-0.307
	c-0.474-0.199-0.96-0.348-1.451-0.451c-0.031-0.007-0.062-0.016-0.093-0.023c-0.175-0.034-0.352-0.056-0.528-0.078
	c-0.082-0.011-0.162-0.027-0.245-0.035c-0.13-0.013-0.26-0.014-0.39-0.02C212.173,0.011,212.042,0,211.911,0
	c-0.079,0-0.157,0.008-0.236,0.01c-0.182,0.005-0.365,0.011-0.547,0.028c-0.021,0.002-0.042,0.007-0.062,0.009
	c-0.799,0.085-1.591,0.294-2.351,0.628c-0.182,0.08-0.364,0.16-0.541,0.254c-0.023,0.012-0.045,0.028-0.068,0.04
	c-0.214,0.116-0.424,0.24-0.628,0.376c-0.004,0.003-0.009,0.005-0.013,0.008l-70.147,46.98h-5.068c-4.418,0-8,3.582-8,8
	c0,4.25,3.316,7.715,7.5,7.975v168.218c-4.184,0.259-7.5,3.725-7.5,7.975c0,4.418,3.582,8,8,8h15.845l-15.6,159.333h-1.911
	c-4.418,0-8,3.582-8,8s3.582,8,8,8h9.166c0.003,0,0.007,0,0.01,0c0.003,0,0.007,0,0.01,0h9.147c4.418,0,8-3.582,8-8s-3.582-8-8-8
	h-0.345l2.805-28.648l60.541-33.696l60.877,33.883l2.543,28.461h-0.421c-4.418,0-8,3.582-8,8s3.582,8,8,8h9.148
	c0.003,0,0.007,0,0.01,0c0.004,0,0.007,0,0.011,0h9.164c4.418,0,8-3.582,8-8S297.668,407.833,293.25,407.833z M161.104,279.833
	h102.795l1.567,17.54l-53.55,29.805l-52.583-29.267L161.104,279.833z M156.889,232.5c-0.006,0-0.011,0-0.017,0h-9.122V64.333
	h128.334V232.5h-7.557c-0.003,0-0.005,0-0.008,0H156.889z M211.917,17.629l45.845,30.704h-91.69L211.917,17.629z M261.099,248.5
	l1.37,15.333H162.67l1.501-15.333H261.099z M153.272,359.818l4.361-44.542l37.833,21.057L153.272,359.818z M228.366,336.333
	l38.659-21.517l4.047,45.286L228.366,336.333z"/>
</svg>