<svg width="38" height="56" viewBox="0 0 38 56" fill="none" xmlns="http://www.w3.org/2000/svg">
<g filter="url(#filter0_d_702_827)">
<path d="M13.07 43H12.3654C12.3237 42.7973 12.2508 42.6193 12.1467 42.4659C12.0444 42.3125 11.9194 42.1837 11.7717 42.0795C11.6258 41.9735 11.4639 41.8939 11.2859 41.8409C11.1078 41.7879 10.9222 41.7614 10.729 41.7614C10.3768 41.7614 10.0576 41.8504 9.77166 42.0284C9.48757 42.2064 9.26125 42.4688 9.09268 42.8153C8.92602 43.1619 8.84268 43.5871 8.84268 44.0909C8.84268 44.5947 8.92602 45.0199 9.09268 45.3665C9.26125 45.7131 9.48757 45.9754 9.77166 46.1534C10.0576 46.3314 10.3768 46.4205 10.729 46.4205C10.9222 46.4205 11.1078 46.3939 11.2859 46.3409C11.4639 46.2879 11.6258 46.2093 11.7717 46.1051C11.9194 45.9991 12.0444 45.8693 12.1467 45.7159C12.2508 45.5606 12.3237 45.3826 12.3654 45.1818H13.07C13.0169 45.4792 12.9203 45.7453 12.7802 45.9801C12.64 46.215 12.4658 46.4148 12.2575 46.5795C12.0491 46.7424 11.8152 46.8665 11.5558 46.9517C11.2982 47.0369 11.0226 47.0795 10.729 47.0795C10.2328 47.0795 9.79155 46.9583 9.40518 46.7159C9.01882 46.4735 8.71484 46.1288 8.49325 45.6818C8.27166 45.2348 8.16087 44.7045 8.16087 44.0909C8.16087 43.4773 8.27166 42.947 8.49325 42.5C8.71484 42.053 9.01882 41.7083 9.40518 41.4659C9.79155 41.2235 10.2328 41.1023 10.729 41.1023C11.0226 41.1023 11.2982 41.1449 11.5558 41.2301C11.8152 41.3153 12.0491 41.4403 12.2575 41.6051C12.4658 41.768 12.64 41.9669 12.7802 42.2017C12.9203 42.4347 13.0169 42.7008 13.07 43ZM19.1175 44.0909C19.1175 44.7045 19.0067 45.2348 18.7852 45.6818C18.5636 46.1288 18.2596 46.4735 17.8732 46.7159C17.4869 46.9583 17.0456 47.0795 16.5494 47.0795C16.0531 47.0795 15.6119 46.9583 15.2255 46.7159C14.8391 46.4735 14.5352 46.1288 14.3136 45.6818C14.092 45.2348 13.9812 44.7045 13.9812 44.0909C13.9812 43.4773 14.092 42.947 14.3136 42.5C14.5352 42.053 14.8391 41.7083 15.2255 41.4659C15.6119 41.2235 16.0531 41.1023 16.5494 41.1023C17.0456 41.1023 17.4869 41.2235 17.8732 41.4659C18.2596 41.7083 18.5636 42.053 18.7852 42.5C19.0067 42.947 19.1175 43.4773 19.1175 44.0909ZM18.4357 44.0909C18.4357 43.5871 18.3514 43.1619 18.1829 42.8153C18.0162 42.4688 17.7899 42.2064 17.5039 42.0284C17.2198 41.8504 16.9016 41.7614 16.5494 41.7614C16.1971 41.7614 15.878 41.8504 15.592 42.0284C15.3079 42.2064 15.0816 42.4688 14.913 42.8153C14.7463 43.1619 14.663 43.5871 14.663 44.0909C14.663 44.5947 14.7463 45.0199 14.913 45.3665C15.0816 45.7131 15.3079 45.9754 15.592 46.1534C15.878 46.3314 16.1971 46.4205 16.5494 46.4205C16.9016 46.4205 17.2198 46.3314 17.5039 46.1534C17.7899 45.9754 18.0162 45.7131 18.1829 45.3665C18.3514 45.0199 18.4357 44.5947 18.4357 44.0909ZM24.9158 41.1818V47H24.234L21.0636 42.4318H21.0067V47H20.3022V41.1818H20.984L24.1658 45.7614H24.2227V41.1818H24.9158ZM26.3256 47V41.1818H29.8143V41.8068H27.0302V43.7727H29.5529V44.3977H27.0302V47H26.3256Z" fill="black"/>
<path fill-rule="evenodd" clip-rule="evenodd" d="M17.7 28C17.0192 28 16.4385 27.5073 16.3276 26.8356C16.2255 26.2922 15.8343 25.8481 15.308 25.6786C14.8792 25.5313 14.4599 25.3577 14.0526 25.1586C13.5679 24.9106 12.9865 24.9478 12.5372 25.2551C11.9934 25.6461 11.2465 25.5855 10.7729 25.1121L8.93059 23.2699C8.43478 22.774 8.37036 21.9923 8.7783 21.422C9.09291 20.9624 9.13823 20.3697 8.89716 19.8676C8.73832 19.5188 8.59821 19.1617 8.47745 18.7979C8.30448 18.2246 7.82705 17.7952 7.23872 17.6836C6.52928 17.5703 6.00552 16.961 6.00002 16.2424V13.9377C5.99625 13.1096 6.59438 12.4013 7.41145 12.2663C8.03129 12.1484 8.54888 11.7238 8.78573 11.139C8.8563 10.9743 8.93059 10.8109 9.00859 10.6487C9.3236 10.0422 9.28009 9.31178 8.89529 8.747C8.41409 8.07821 8.48798 7.15931 9.06987 6.576L10.4237 5.22214C11.0915 4.55417 12.1446 4.46772 12.9123 5.01786L12.955 5.04757C13.5283 5.43341 14.2578 5.5033 14.8939 5.23329C15.5744 4.98835 16.076 4.40359 16.2143 3.69371L16.233 3.63057C16.3857 2.6908 17.1973 2.00039 18.1495 2H19.7838C20.7615 1.99955 21.596 2.70677 21.756 3.67143L21.7857 3.80143C21.917 4.48146 22.3926 5.04427 23.0411 5.28714C23.6663 5.55544 24.3851 5.48537 24.9467 5.10143L25.0394 5.03457C25.827 4.46692 26.9101 4.55422 27.5968 5.24071L28.8429 6.48871C29.4674 7.11673 29.5459 8.1043 29.0286 8.82314C28.6232 9.42397 28.5716 10.196 28.893 10.8456L28.973 11.0313C29.2331 11.6655 29.7964 12.1251 30.4697 12.2533C31.3499 12.3968 31.9971 13.1557 32 14.0473V16.1143C31.9998 16.9006 31.431 17.5714 30.6554 17.7003C30.0175 17.8227 29.4979 18.2845 29.3015 18.9037C29.2149 19.1513 29.1183 19.399 29.0118 19.6466C28.764 20.1907 28.8191 20.8247 29.1568 21.318C29.6023 21.9379 29.5331 22.7894 28.9933 23.3293L27.2644 25.0601C26.7699 25.5545 25.9901 25.6182 25.4221 25.2106C24.9478 24.8865 24.3335 24.8508 23.825 25.1177C23.4625 25.2973 23.0905 25.4566 22.7107 25.595C22.1794 25.7783 21.7878 26.2329 21.6855 26.7854C21.5771 27.4806 20.9811 27.9948 20.2777 28H17.7Z" stroke="black" stroke-width="2.176" stroke-linecap="round" stroke-linejoin="round"/>
<path fill-rule="evenodd" clip-rule="evenodd" d="M23.3327 15C23.3327 17.393 21.3929 19.3327 18.9999 19.3327C16.607 19.3327 14.6672 17.393 14.6672 15C14.6672 12.6071 16.607 10.6673 18.9999 10.6673C21.3929 10.6673 23.3327 12.6071 23.3327 15Z" stroke="black" stroke-width="2.176" stroke-linecap="round" stroke-linejoin="round"/>
</g>
<defs>
<filter id="filter0_d_702_827" x="0.911987" y="0.911987" width="36.176" height="54.1675" filterUnits="userSpaceOnUse" color-interpolation-filters="sRGB">
<feFlood flood-opacity="0" result="BackgroundImageFix"/>
<feColorMatrix in="SourceAlpha" type="matrix" values="0 0 0 0 0 0 0 0 0 0 0 0 0 0 0 0 0 0 127 0" result="hardAlpha"/>
<feOffset dy="4"/>
<feGaussianBlur stdDeviation="2"/>
<feComposite in2="hardAlpha" operator="out"/>
<feColorMatrix type="matrix" values="0 0 0 0 0 0 0 0 0 0 0 0 0 0 0 0 0 0 0.25 0"/>
<feBlend mode="normal" in2="BackgroundImageFix" result="effect1_dropShadow_702_827"/>
<feBlend mode="normal" in="SourceGraphic" in2="effect1_dropShadow_702_827" result="shape"/>
</filter>
</defs>
</svg>
