<svg width="36" height="55" viewBox="0 0 36 55" fill="none" xmlns="http://www.w3.org/2000/svg">
<g filter="url(#filter0_d_702_828)">
<path d="M9.94425 40.1818V46H9.2397V40.1818H9.94425ZM15.9705 40.1818V46H15.2887L12.1183 41.4318H12.0614V46H11.3569V40.1818H12.0387L15.2205 44.7614H15.2773V40.1818H15.9705ZM17.3803 46V40.1818H20.869V40.8068H18.0849V42.7727H20.6076V43.3977H18.0849V46H17.3803ZM26.9847 43.0909C26.9847 43.7045 26.8739 44.2348 26.6523 44.6818C26.4308 45.1288 26.1268 45.4735 25.7404 45.7159C25.354 45.9583 24.9128 46.0795 24.4165 46.0795C23.9203 46.0795 23.479 45.9583 23.0927 45.7159C22.7063 45.4735 22.4023 45.1288 22.1808 44.6818C21.9592 44.2348 21.8484 43.7045 21.8484 43.0909C21.8484 42.4773 21.9592 41.947 22.1808 41.5C22.4023 41.053 22.7063 40.7083 23.0927 40.4659C23.479 40.2235 23.9203 40.1023 24.4165 40.1023C24.9128 40.1023 25.354 40.2235 25.7404 40.4659C26.1268 40.7083 26.4308 41.053 26.6523 41.5C26.8739 41.947 26.9847 42.4773 26.9847 43.0909ZM26.3029 43.0909C26.3029 42.5871 26.2186 42.1619 26.0501 41.8153C25.8834 41.4688 25.6571 41.2064 25.3711 41.0284C25.087 40.8504 24.7688 40.7614 24.4165 40.7614C24.0643 40.7614 23.7451 40.8504 23.4592 41.0284C23.1751 41.2064 22.9487 41.4688 22.7802 41.8153C22.6135 42.1619 22.5302 42.5871 22.5302 43.0909C22.5302 43.5947 22.6135 44.0199 22.7802 44.3665C22.9487 44.7131 23.1751 44.9754 23.4592 45.1534C23.7451 45.3314 24.0643 45.4205 24.4165 45.4205C24.7688 45.4205 25.087 45.3314 25.3711 45.1534C25.6571 44.9754 25.8834 44.7131 26.0501 44.3665C26.2186 44.0199 26.3029 43.5947 26.3029 43.0909Z" fill="black"/>
<path d="M5 5.33333V22.6667H15.6364V5.33333H5ZM14.4545 21.2222H6.18182V6.77778H14.4545V21.2222ZM5 25.5556H31V27H5V25.5556ZM5 1H31V2.44444H5V1ZM18 6.77778H31V8.22222H18V6.77778ZM18 11.1111H31V12.5556H18V11.1111ZM18 15.4444H31V16.8889H18V15.4444ZM18 19.7778H31V21.2222H18V19.7778Z" fill="black" stroke="black" stroke-width="0.832"/>
</g>
<defs>
<filter id="filter0_d_702_828" x="0.583984" y="0.583984" width="34.832" height="53.4955" filterUnits="userSpaceOnUse" color-interpolation-filters="sRGB">
<feFlood flood-opacity="0" result="BackgroundImageFix"/>
<feColorMatrix in="SourceAlpha" type="matrix" values="0 0 0 0 0 0 0 0 0 0 0 0 0 0 0 0 0 0 127 0" result="hardAlpha"/>
<feOffset dy="4"/>
<feGaussianBlur stdDeviation="2"/>
<feComposite in2="hardAlpha" operator="out"/>
<feColorMatrix type="matrix" values="0 0 0 0 0 0 0 0 0 0 0 0 0 0 0 0 0 0 0.25 0"/>
<feBlend mode="normal" in2="BackgroundImageFix" result="effect1_dropShadow_702_828"/>
<feBlend mode="normal" in="SourceGraphic" in2="effect1_dropShadow_702_828" result="shape"/>
</filter>
</defs>
</svg>
