<svg width="34" height="54" viewBox="0 0 34 54" fill="none" xmlns="http://www.w3.org/2000/svg">
<g filter="url(#filter0_d_702_824)">
<path d="M12.7692 40.6364C12.7351 40.3485 12.5968 40.125 12.3544 39.9659C12.112 39.8068 11.8146 39.7273 11.4624 39.7273C11.2048 39.7273 10.9794 39.7689 10.7862 39.8523C10.5949 39.9356 10.4453 40.0502 10.3374 40.196C10.2313 40.3419 10.1783 40.5076 10.1783 40.6932C10.1783 40.8485 10.2152 40.982 10.2891 41.0938C10.3648 41.2036 10.4614 41.2955 10.5788 41.3693C10.6963 41.4413 10.8194 41.5009 10.9482 41.5483C11.0769 41.5937 11.1953 41.6307 11.3033 41.6591L11.8942 41.8182C12.0457 41.858 12.2143 41.9129 12.3999 41.983C12.5874 42.053 12.7663 42.1487 12.9368 42.2699C13.1091 42.3892 13.2512 42.5426 13.3629 42.7301C13.4747 42.9176 13.5305 43.1477 13.5305 43.4205C13.5305 43.7348 13.4482 44.0189 13.2834 44.2727C13.1205 44.5265 12.8819 44.7282 12.5675 44.8778C12.255 45.0275 11.8752 45.1023 11.4283 45.1023C11.0116 45.1023 10.6508 45.035 10.3459 44.9006C10.0429 44.7661 9.80421 44.5786 9.62997 44.3381C9.45762 44.0975 9.36009 43.8182 9.33736 43.5H10.0646C10.0836 43.7197 10.1574 43.9015 10.2862 44.0455C10.4169 44.1875 10.5817 44.2936 10.7805 44.3636C10.9813 44.4318 11.1972 44.4659 11.4283 44.4659C11.6972 44.4659 11.9387 44.4223 12.1527 44.3352C12.3667 44.2462 12.5362 44.1231 12.6612 43.9659C12.7862 43.8068 12.8487 43.6212 12.8487 43.4091C12.8487 43.2159 12.7947 43.0587 12.6868 42.9375C12.5788 42.8163 12.4368 42.7178 12.2607 42.642C12.0845 42.5663 11.8942 42.5 11.6896 42.4432L10.9737 42.2386C10.5192 42.108 10.1593 41.9214 9.89418 41.679C9.62902 41.4366 9.49645 41.1193 9.49645 40.7273C9.49645 40.4015 9.58452 40.1174 9.76065 39.875C9.93868 39.6307 10.1773 39.4413 10.4766 39.3068C10.7777 39.1705 11.1139 39.1023 11.4851 39.1023C11.8601 39.1023 12.1934 39.1695 12.4851 39.304C12.7768 39.4366 13.0078 39.6184 13.1783 39.8494C13.3506 40.0805 13.4415 40.3428 13.451 40.6364H12.7692ZM18.5071 39.1818H19.2116V43.0341C19.2116 43.4318 19.1179 43.7869 18.9304 44.0994C18.7448 44.41 18.4825 44.6553 18.1435 44.8352C17.8045 45.0133 17.4067 45.1023 16.9503 45.1023C16.4938 45.1023 16.0961 45.0133 15.7571 44.8352C15.4181 44.6553 15.1548 44.41 14.9673 44.0994C14.7817 43.7869 14.6889 43.4318 14.6889 43.0341V39.1818H15.3935V42.9773C15.3935 43.2614 15.456 43.5142 15.581 43.7358C15.706 43.9555 15.884 44.1288 16.1151 44.2557C16.348 44.3807 16.6264 44.4432 16.9503 44.4432C17.2741 44.4432 17.5526 44.3807 17.7855 44.2557C18.0185 44.1288 18.1965 43.9555 18.3196 43.7358C18.4446 43.5142 18.5071 43.2614 18.5071 42.9773V39.1818ZM20.6186 45V39.1818H22.6527C23.058 39.1818 23.3923 39.2519 23.6555 39.392C23.9188 39.5303 24.1148 39.7169 24.2436 39.9517C24.3724 40.1847 24.4368 40.4432 24.4368 40.7273C24.4368 40.9773 24.3923 41.1837 24.3033 41.3466C24.2161 41.5095 24.1006 41.6383 23.9567 41.733C23.8146 41.8277 23.6603 41.8977 23.4936 41.9432V42C23.6716 42.0114 23.8506 42.0739 24.0305 42.1875C24.2105 42.3011 24.361 42.464 24.4822 42.6761C24.6035 42.8883 24.6641 43.1477 24.6641 43.4545C24.6641 43.7462 24.5978 44.0085 24.4652 44.2415C24.3326 44.4744 24.1233 44.6591 23.8374 44.7955C23.5514 44.9318 23.1792 45 22.7209 45H20.6186ZM21.3232 44.375H22.7209C23.1811 44.375 23.5078 44.286 23.701 44.108C23.8961 43.928 23.9936 43.7102 23.9936 43.4545C23.9936 43.2576 23.9434 43.0758 23.843 42.9091C23.7427 42.7405 23.5997 42.6061 23.4141 42.5057C23.2285 42.4034 23.0088 42.3523 22.755 42.3523H21.3232V44.375ZM21.3232 41.7386H22.63C22.8421 41.7386 23.0334 41.697 23.2038 41.6136C23.3762 41.5303 23.5125 41.4129 23.6129 41.2614C23.7152 41.1098 23.7663 40.9318 23.7663 40.7273C23.7663 40.4716 23.6773 40.2547 23.4993 40.0767C23.3213 39.8968 23.0391 39.8068 22.6527 39.8068H21.3232V41.7386Z" fill="black"/>
<path d="M22.5044 2.18214C25.398 2.21597 27.8333 5.20005 27.8333 8.72857C27.8333 14.2996 20.8242 20.6965 16.9989 23.5595C13.1715 20.702 6.16667 14.3149 6.16667 8.72857C6.16667 5.20005 8.602 2.21597 11.4945 2.18214C14.3848 2.37308 14.7532 3.05609 17 5.32334C19.2414 3.06155 19.6195 2.3709 22.5044 2.18214ZM22.3202 0.00654647L22.3213 0C20.2424 0 18.3639 0.856491 17 2.23451C15.6361 0.856491 13.7576 0 11.6787 0L11.6797 0.00654647C7.29767 -0.0698285 4 4.05769 4 8.72857C4 17.4571 16.9328 26.1857 16.9328 26.1857H17.0672C17.0672 26.1857 30 17.4571 30 8.72857C30 4.05115 26.6969 -0.0698285 22.3202 0.00654647Z" fill="black" stroke="black" stroke-width="0.00064"/>
</g>
<defs>
<filter id="filter0_d_702_824" x="-0.000366211" y="-0.000305176" width="34.0007" height="53.1026" filterUnits="userSpaceOnUse" color-interpolation-filters="sRGB">
<feFlood flood-opacity="0" result="BackgroundImageFix"/>
<feColorMatrix in="SourceAlpha" type="matrix" values="0 0 0 0 0 0 0 0 0 0 0 0 0 0 0 0 0 0 127 0" result="hardAlpha"/>
<feOffset dy="4"/>
<feGaussianBlur stdDeviation="2"/>
<feComposite in2="hardAlpha" operator="out"/>
<feColorMatrix type="matrix" values="0 0 0 0 0 0 0 0 0 0 0 0 0 0 0 0 0 0 0.25 0"/>
<feBlend mode="normal" in2="BackgroundImageFix" result="effect1_dropShadow_702_824"/>
<feBlend mode="normal" in="SourceGraphic" in2="effect1_dropShadow_702_824" result="shape"/>
</filter>
</defs>
</svg>
