<svg width="36" height="55" viewBox="0 0 36 55" fill="none" xmlns="http://www.w3.org/2000/svg">
<g filter="url(#filter0_d_702_826)">
<path d="M8.94744 42C8.88494 41.8087 8.80256 41.6373 8.70028 41.4858C8.59991 41.3324 8.47964 41.2017 8.33949 41.0938C8.20123 40.9858 8.04403 40.9034 7.8679 40.8466C7.69176 40.7898 7.49858 40.7614 7.28835 40.7614C6.94366 40.7614 6.63021 40.8504 6.34801 41.0284C6.06581 41.2064 5.84138 41.4688 5.67472 41.8153C5.50805 42.1619 5.42472 42.5871 5.42472 43.0909C5.42472 43.5947 5.509 44.0199 5.67756 44.3665C5.84612 44.7131 6.07434 44.9754 6.36222 45.1534C6.65009 45.3314 6.97396 45.4205 7.33381 45.4205C7.66714 45.4205 7.9607 45.3494 8.21449 45.2074C8.47017 45.0634 8.66903 44.8608 8.81108 44.5994C8.95502 44.3362 9.02699 44.0265 9.02699 43.6705L9.2429 43.7159H7.4929V43.0909H9.70881V43.7159C9.70881 44.1951 9.60653 44.6117 9.40199 44.9659C9.19934 45.3201 8.91903 45.5947 8.56108 45.7898C8.20502 45.983 7.79593 46.0795 7.33381 46.0795C6.81866 46.0795 6.366 45.9583 5.97585 45.7159C5.58759 45.4735 5.28456 45.1288 5.06676 44.6818C4.85085 44.2348 4.7429 43.7045 4.7429 43.0909C4.7429 42.6307 4.80445 42.2169 4.92756 41.8494C5.05256 41.4801 5.22869 41.1657 5.45597 40.9062C5.68324 40.6468 5.95218 40.4479 6.26278 40.3097C6.57339 40.1714 6.91525 40.1023 7.28835 40.1023C7.59517 40.1023 7.88116 40.1487 8.14631 40.2415C8.41335 40.3324 8.65104 40.4621 8.85938 40.6307C9.0696 40.7973 9.24479 40.9972 9.38494 41.2301C9.52509 41.4612 9.62169 41.7178 9.67472 42H8.94744ZM10.9155 46V40.1818H12.8814C13.3359 40.1818 13.709 40.2595 14.0007 40.4148C14.2924 40.5682 14.5083 40.7794 14.6484 41.0483C14.7886 41.3172 14.8587 41.6231 14.8587 41.9659C14.8587 42.3087 14.7886 42.6127 14.6484 42.8778C14.5083 43.143 14.2933 43.3513 14.0036 43.5028C13.7138 43.6525 13.3435 43.7273 12.8928 43.7273H11.3018V43.0909H12.87C13.1806 43.0909 13.4306 43.0455 13.62 42.9545C13.8113 42.8636 13.9496 42.7348 14.0348 42.5682C14.1219 42.3996 14.1655 42.1989 14.1655 41.9659C14.1655 41.733 14.1219 41.5294 14.0348 41.3551C13.9477 41.1809 13.8085 41.0464 13.6172 40.9517C13.4259 40.8551 13.1731 40.8068 12.8587 40.8068H11.62V46H10.9155ZM13.6541 43.3864L15.0859 46H14.2678L12.8587 43.3864H13.6541ZM16.2713 46H15.5327L17.669 40.1818H18.3963L20.5327 46H19.794L18.0554 41.1023H18.0099L16.2713 46ZM16.544 43.7273H19.5213V44.3523H16.544V43.7273ZM21.4389 46V40.1818H23.4048C23.8613 40.1818 24.2344 40.2642 24.5241 40.429C24.8158 40.5919 25.0317 40.8125 25.1719 41.0909C25.312 41.3693 25.3821 41.6799 25.3821 42.0227C25.3821 42.3655 25.312 42.6771 25.1719 42.9574C25.0336 43.2377 24.8196 43.4612 24.5298 43.6278C24.2401 43.7926 23.8688 43.875 23.4162 43.875H22.0071V43.25H23.3935C23.706 43.25 23.9569 43.196 24.1463 43.0881C24.3357 42.9801 24.473 42.8343 24.5582 42.6506C24.6454 42.465 24.6889 42.2557 24.6889 42.0227C24.6889 41.7898 24.6454 41.5814 24.5582 41.3977C24.473 41.214 24.3348 41.0701 24.1435 40.9659C23.9522 40.8598 23.6984 40.8068 23.3821 40.8068H22.1435V46H21.4389ZM26.517 46V40.1818H27.2216V42.7727H30.3239V40.1818H31.0284V46H30.3239V43.3977H27.2216V46H26.517Z" fill="black"/>
<path fill-rule="evenodd" clip-rule="evenodd" d="M30.0488 14.6827C30.5783 14.6827 31.0097 14.2439 30.9998 13.7113C30.8496 6.75957 25.2417 1.15185 18.2886 1.00017C17.756 0.990299 17.3171 1.42162 17.3171 1.95114V2.36609C10.5151 2.36609 5 7.88117 5 14.6831C5 21.4849 10.5151 27 17.3171 27C19.2568 27 21.1332 26.5509 22.8322 25.6999C23.2003 25.5144 23.5561 25.3131 23.8977 25.097C24.2378 24.8807 24.5564 24.6575 24.8566 24.4238C27.0667 22.7115 28.643 20.2916 29.2965 17.5587C29.3541 17.3175 29.4027 17.0845 29.4421 16.8565C29.5065 16.4841 29.2568 16.13 28.8844 16.0657C28.512 16.0013 28.1579 16.251 28.0936 16.6234C28.0593 16.8216 28.0166 17.0265 27.9655 17.2405C27.3849 19.6681 25.9836 21.8194 24.0173 23.3428C23.751 23.55 23.4677 23.7485 23.1645 23.9414C22.8621 24.1328 22.545 24.3122 22.2179 24.477C20.7095 25.2326 19.0428 25.6315 17.3171 25.6315C11.271 25.6315 6.36856 20.7291 6.36856 14.6831C6.36856 8.63695 11.271 3.73464 17.3171 3.73464V13.7398C17.3171 14.26 17.7398 14.6827 18.26 14.6827H30.0488ZM18.6856 3.75287V2.38535C24.5648 2.72597 29.2741 7.43468 29.6146 13.3142H18.6856V5.13709C20.6788 5.46021 22.5318 6.39533 23.9982 7.86173C24.2654 8.12894 24.6987 8.12894 24.9659 7.86173C25.2331 7.59446 25.2331 7.16124 24.9659 6.89397C23.2406 5.1687 21.0425 4.08707 18.6856 3.75287Z" fill="black" stroke="black" stroke-width="0.96"/>
</g>
<defs>
<filter id="filter0_d_702_826" x="0.52002" y="0.52002" width="34.96" height="53.5595" filterUnits="userSpaceOnUse" color-interpolation-filters="sRGB">
<feFlood flood-opacity="0" result="BackgroundImageFix"/>
<feColorMatrix in="SourceAlpha" type="matrix" values="0 0 0 0 0 0 0 0 0 0 0 0 0 0 0 0 0 0 127 0" result="hardAlpha"/>
<feOffset dy="4"/>
<feGaussianBlur stdDeviation="2"/>
<feComposite in2="hardAlpha" operator="out"/>
<feColorMatrix type="matrix" values="0 0 0 0 0 0 0 0 0 0 0 0 0 0 0 0 0 0 0.25 0"/>
<feBlend mode="normal" in2="BackgroundImageFix" result="effect1_dropShadow_702_826"/>
<feBlend mode="normal" in="SourceGraphic" in2="effect1_dropShadow_702_826" result="shape"/>
</filter>
</defs>
</svg>
